<?xml version="1.0" standalone="no"?>
<!DOCTYPE svg PUBLIC "-//W3C//DTD SVG 20010904//EN"
 "http://www.w3.org/TR/2001/REC-SVG-20010904/DTD/svg10.dtd">
<svg version="1.0" xmlns="http://www.w3.org/2000/svg"
 width="128.000000pt" height="128.000000pt" viewBox="0 0 128.000000 128.000000"
 preserveAspectRatio="xMidYMid meet">

<g transform="translate(0.000000,128.000000) scale(0.100000,-0.100000)"
fill="#000000" stroke="none">
<path d="M0 640 l0 -640 640 0 640 0 0 640 0 640 -640 0 -640 0 0 -640z m467
486 c46 -42 50 -43 75 -30 50 26 108 28 166 5 l54 -21 50 45 c85 77 118 57
118 -71 0 -57 4 -70 35 -115 131 -191 58 -457 -154 -562 -61 -30 -72 -32 -171
-32 -99 0 -109 2 -172 33 -121 59 -195 155 -218 281 -18 100 7 209 66 287 31
40 34 51 34 108 0 127 33 148 117 72z m-177 -830 c0 -8 -11 -34 -25 -57 -32
-56 -31 -59 6 -59 17 0 28 -4 24 -10 -7 -11 -105 -14 -105 -2 0 4 11 27 25 51
31 54 31 61 0 61 -24 0 -32 10 -18 23 3 4 26 7 50 7 30 0 43 -4 43 -14z m60
-45 c0 -41 4 -60 14 -64 23 -9 36 15 36 70 0 40 4 53 15 53 12 0 15 -14 15
-63 0 -71 -10 -87 -55 -87 -45 0 -55 16 -55 87 0 49 3 63 15 63 12 0 15 -13
15 -59z m194 53 c24 -9 20 -33 -4 -27 -26 7 -50 -13 -50 -41 0 -33 16 -50 47
-51 34 0 38 -19 4 -23 -44 -7 -69 6 -81 42 -21 65 26 122 84 100z m86 -26 l0
-33 21 33 c12 18 29 32 41 32 19 0 19 -1 -3 -31 -22 -31 -22 -31 -3 -67 10
-21 20 -40 22 -44 2 -5 -5 -8 -16 -8 -12 0 -24 11 -32 30 -14 34 -30 31 -30
-6 0 -17 -5 -24 -20 -24 -18 0 -20 7 -20 68 0 71 4 82 27 82 8 0 13 -12 13
-32z m148 -46 c3 -67 1 -72 -18 -72 -18 0 -20 6 -20 68 0 38 3 72 7 76 18 17
28 -7 31 -72z m92 28 l25 -45 3 48 c2 33 7 47 18 47 11 0 14 -16 14 -75 0 -65
-2 -75 -17 -75 -10 0 -29 18 -43 43 l-25 42 -3 -42 c-2 -29 -8 -43 -18 -43
-11 0 -14 16 -14 76 0 66 2 75 17 72 10 -2 29 -23 43 -48z m130 -9 c0 -63 11
-81 35 -61 10 8 15 31 15 66 0 41 4 54 15 54 12 0 15 -14 15 -63 0 -71 -10
-87 -54 -87 -47 0 -58 13 -64 69 -5 58 1 81 23 81 12 0 15 -13 15 -59z"/>
<path d="M370 1141 c-5 -11 -10 -52 -10 -91 0 -60 -4 -77 -24 -103 -49 -66
-69 -120 -74 -198 -8 -134 41 -239 148 -320 68 -51 80 -50 81 4 0 38 17 99 18
70 1 -21 57 -43 108 -43 59 0 145 38 169 75 16 25 17 25 37 8 11 -10 29 -38
39 -62 l20 -43 35 33 c19 19 47 61 64 94 58 118 48 251 -28 363 -33 49 -36 59
-34 115 3 71 -11 117 -34 117 -9 0 -40 -22 -69 -50 -29 -27 -57 -46 -62 -41
-5 4 -31 16 -57 25 -54 20 -108 17 -159 -10 -29 -15 -30 -15 -78 30 -54 50
-74 56 -90 27z m79 -45 c26 -26 40 -49 36 -56 -5 -8 -17 0 -37 24 -16 20 -33
36 -38 36 -5 0 -8 -31 -7 -69 2 -52 7 -74 21 -90 20 -22 17 -39 -4 -26 -40 25
-58 225 -21 225 4 0 26 -20 50 -44z m445 22 c17 -66 -2 -163 -40 -199 l-23
-21 1 33 c0 19 7 46 15 62 12 24 12 27 -2 27 -14 0 -14 4 1 33 11 20 19 27 22
18 2 -7 -1 -17 -9 -21 -10 -7 -10 -11 0 -24 10 -12 11 -19 2 -30 -8 -9 -8 -16
-2 -20 14 -9 22 25 20 78 -3 56 -20 60 -51 11 -24 -37 -33 -42 -43 -24 -7 10
77 99 94 99 5 0 11 -10 15 -22z m-241 -35 c-7 -2 -21 -2 -30 0 -10 3 -4 5 12
5 17 0 24 -2 18 -5z m-223 -63 c-9 -6 -9 -13 -1 -28 13 -25 15 -60 2 -46 -13
14 -21 73 -11 79 7 4 6 13 0 25 -5 10 -10 22 -10 27 1 4 8 -5 16 -21 12 -22
13 -30 4 -36z m129 47 c-2 -1 -13 -9 -24 -17 -19 -14 -19 -14 -6 3 7 9 18 17
24 17 6 0 8 -1 6 -3z m101 -48 c90 -5 113 -30 106 -119 -7 -85 4 -103 37 -64
31 36 53 23 42 -24 -8 -40 -54 -90 -65 -72 -5 8 -13 -5 -24 -37 -10 -30 -32
-65 -56 -88 -55 -54 -103 -55 -155 -5 -55 54 -67 98 -63 238 2 99 6 125 20
139 21 20 77 42 98 37 8 -1 35 -4 60 -5z m-202 -179 c3 -7 0 -10 -6 -6 -8 5
-8 -2 -1 -23 14 -40 5 -65 -10 -28 -15 38 -14 80 1 75 6 -2 14 -10 16 -18z
m443 -156 c17 -18 23 -36 23 -65 -1 -34 1 -38 14 -27 25 21 4 -32 -25 -64
l-25 -27 -24 28 c-23 27 -23 30 -8 60 10 20 15 49 12 76 -2 25 -1 45 3 45 3 0
16 -12 30 -26z m-158 -96 c-42 -48 -156 -74 -194 -45 -9 7 -20 23 -24 37 l-8
24 32 -27 c57 -48 147 -26 188 45 17 27 18 28 21 8 2 -12 -5 -31 -15 -42z"/>
<path d="M506 892 c-2 -4 13 -6 35 -4 21 2 39 6 39 8 0 7 -69 4 -74 -4z"/>
<path d="M651 896 c2 -2 24 -6 48 -9 29 -4 40 -2 30 4 -13 8 -88 14 -78 5z"/>
<path d="M515 859 c-11 -16 27 -40 43 -27 9 8 9 14 1 24 -14 17 -35 18 -44 3z"/>
<path d="M585 822 c-4 -29 -5 -56 -2 -59 7 -7 20 82 15 99 -3 7 -8 -11 -13
-40z"/>
<path d="M659 853 c-8 -9 -9 -14 -2 -10 6 4 13 2 15 -4 2 -7 13 -9 25 -5 14 4
20 12 16 22 -7 19 -37 18 -54 -3z"/>
<path d="M806 826 c-9 -14 -16 -33 -16 -43 0 -15 2 -16 10 -3 5 8 10 11 11 5
1 -5 5 6 9 25 11 44 7 47 -14 16z"/>
<path d="M642 759 c2 -7 -10 -17 -25 -23 -24 -9 -31 -7 -43 9 -12 16 -14 16
-14 2 0 -9 9 -21 21 -27 38 -21 105 23 69 45 -6 4 -9 1 -8 -6z"/>
<path d="M544 702 c15 -25 136 -26 136 -2 0 5 -14 4 -30 -2 -29 -9 -54 -7 -96
9 -11 4 -15 3 -10 -5z"/>
<path d="M593 653 c9 -2 25 -2 35 0 9 3 1 5 -18 5 -19 0 -27 -2 -17 -5z"/>
<path d="M797 410 c-3 -11 -1 -20 4 -20 5 0 9 9 9 20 0 11 -2 20 -4 20 -2 0
-6 -9 -9 -20z"/>
<path d="M520 399 c0 -15 7 -29 15 -33 18 -7 18 2 0 34 l-14 25 -1 -26z"/>
<path d="M696 397 c-5 -15 -6 -31 -2 -34 11 -11 18 5 14 34 l-4 28 -8 -28z"/>
</g>
</svg>
